<svg width="95" height="90" viewBox="0 0 95 90" fill="none" xmlns="http://www.w3.org/2000/svg">
<!-- Exotel - Gen AI Voicebot Testing -->
<path d="M47.5 2C40.5 2 35.2 7.3 35.2 14.3V24.6H59.8V14.3C59.8 7.3 54.5 2 47.5 2Z" fill="url(#paint0_linear_exp3)"/>
<rect x="28" y="24" width="39" height="55" rx="4" fill="url(#paint1_linear_exp3)"/>
<rect x="32" y="28" width="31" height="48" rx="2" fill="#00042D"/>
<path d="M47.5 33C49.7 33 51.5 34.8 51.5 37C51.5 39.2 49.7 41 47.5 41C45.3 41 43.5 39.2 43.5 37C43.5 34.8 45.3 33 47.5 33Z" fill="url(#paint2_linear_exp3)"/>
<path d="M47.5 41L47.5 53" stroke="url(#paint3_linear_exp3)" stroke-width="2"/>
<path d="M47.5 53L42 60" stroke="url(#paint4_linear_exp3)" stroke-width="2"/>
<path d="M47.5 53L53 60" stroke="url(#paint5_linear_exp3)" stroke-width="2"/>
<circle cx="47.5" cy="58" r="3" fill="url(#paint6_linear_exp3)"/>
<path d="M39 44C39 44 37 46 37 48C37 50 38.5 51.5 40.5 51.5C42.5 51.5 44 50 44 48" stroke="url(#paint7_linear_exp3)" stroke-width="1.5" fill="none"/>
<path d="M56 44C56 44 58 46 58 48C58 50 56.5 51.5 54.5 51.5C52.5 51.5 51 50 51 48" stroke="url(#paint8_linear_exp3)" stroke-width="1.5" fill="none"/>
<!-- WebSocket indicator waves -->
<path d="M10 40 Q15 35 20 40 T30 40" stroke="url(#paint9_linear_exp3)" stroke-width="1.5" fill="none" opacity="0.7"/>
<path d="M10 45 Q15 40 20 45 T30 45" stroke="url(#paint10_linear_exp3)" stroke-width="1.5" fill="none" opacity="0.5"/>
<!-- Redis/Test data -->
<rect x="68" y="30" width="18" height="24" rx="2" fill="url(#paint11_linear_exp3)"/>
<rect x="70" y="32" width="14" height="3" rx="1" fill="white" opacity="0.8"/>
<rect x="70" y="37" width="14" height="3" rx="1" fill="white" opacity="0.6"/>
<rect x="70" y="42" width="14" height="3" rx="1" fill="white" opacity="0.6"/>
<rect x="70" y="47" width="10" height="3" rx="1" fill="white" opacity="0.4"/>
<!-- Checkmark for test success -->
<circle cx="83" y="65" r="8" fill="url(#paint12_linear_exp3)"/>
<path d="M79 65 L82 68 L87 62" stroke="white" stroke-width="2" stroke-linecap="round" stroke-linejoin="round"/>
<defs>
<linearGradient id="paint0_linear_exp3" x1="35.2" y1="2" x2="59.8" y2="24.6" gradientUnits="userSpaceOnUse">
<stop stop-color="#FF00C1"/>
<stop offset="1" stop-color="#F4AC24"/>
</linearGradient>
<linearGradient id="paint1_linear_exp3" x1="28" y1="24" x2="67" y2="79" gradientUnits="userSpaceOnUse">
<stop stop-color="#A76DFC"/>
<stop offset="1" stop-color="#5C1CB2"/>
</linearGradient>
<linearGradient id="paint2_linear_exp3" x1="43.5" y1="33" x2="51.5" y2="41" gradientUnits="userSpaceOnUse">
<stop stop-color="#FFAD4B"/>
<stop offset="1" stop-color="#77007C"/>
</linearGradient>
<linearGradient id="paint3_linear_exp3" x1="47.5" y1="41" x2="47.5" y2="53" gradientUnits="userSpaceOnUse">
<stop stop-color="#FF00C1"/>
<stop offset="1" stop-color="#F4AC24"/>
</linearGradient>
<linearGradient id="paint4_linear_exp3" x1="47.5" y1="53" x2="42" y2="60" gradientUnits="userSpaceOnUse">
<stop stop-color="#A76DFC"/>
<stop offset="1" stop-color="#5C1CB2"/>
</linearGradient>
<linearGradient id="paint5_linear_exp3" x1="47.5" y1="53" x2="53" y2="60" gradientUnits="userSpaceOnUse">
<stop stop-color="#A76DFC"/>
<stop offset="1" stop-color="#5C1CB2"/>
</linearGradient>
<linearGradient id="paint6_linear_exp3" x1="44.5" y1="55" x2="50.5" y2="61" gradientUnits="userSpaceOnUse">
<stop stop-color="#FFAD4B"/>
<stop offset="1" stop-color="#77007C"/>
</linearGradient>
<linearGradient id="paint7_linear_exp3" x1="37" y1="44" x2="44" y2="51.5" gradientUnits="userSpaceOnUse">
<stop stop-color="#FF00C1"/>
<stop offset="1" stop-color="#F4AC24"/>
</linearGradient>
<linearGradient id="paint8_linear_exp3" x1="51" y1="44" x2="58" y2="51.5" gradientUnits="userSpaceOnUse">
<stop stop-color="#FF00C1"/>
<stop offset="1" stop-color="#F4AC24"/>
</linearGradient>
<linearGradient id="paint9_linear_exp3" x1="10" y1="35" x2="30" y2="40" gradientUnits="userSpaceOnUse">
<stop stop-color="#FFAD4B"/>
<stop offset="1" stop-color="#77007C"/>
</linearGradient>
<linearGradient id="paint10_linear_exp3" x1="10" y1="40" x2="30" y2="45" gradientUnits="userSpaceOnUse">
<stop stop-color="#A76DFC"/>
<stop offset="1" stop-color="#5C1CB2"/>
</linearGradient>
<linearGradient id="paint11_linear_exp3" x1="68" y1="30" x2="86" y2="54" gradientUnits="userSpaceOnUse">
<stop stop-color="#461885"/>
<stop offset="1" stop-color="#AA51E0"/>
</linearGradient>
<linearGradient id="paint12_linear_exp3" x1="75" y1="57" x2="91" y2="73" gradientUnits="userSpaceOnUse">
<stop stop-color="#10B981"/>
<stop offset="1" stop-color="#059669"/>
</linearGradient>
</defs>
</svg>