<svg width="95" height="88" viewBox="0 0 95 88" fill="none" xmlns="http://www.w3.org/2000/svg">
<!-- Joveo - RAG Email Automation -->
<!-- Email envelope -->
<path d="M15 20 L47.5 45 L80 20 Z" fill="url(#paint0_linear_exp4)"/>
<rect x="15" y="20" width="65" height="40" rx="3" fill="url(#paint1_linear_exp4)"/>
<path d="M15 20 L47.5 42 L80 20" stroke="url(#paint2_linear_exp4)" stroke-width="2" fill="none"/>
<!-- Email content lines -->
<line x1="22" y1="48" x2="73" y2="48" stroke="white" stroke-width="1.5" opacity="0.4"/>
<line x1="22" y1="52" x2="65" y2="52" stroke="white" stroke-width="1.5" opacity="0.3"/>
<!-- AI/Gemini embedding indicator -->
<circle cx="8" cy="30" r="6" fill="url(#paint3_linear_exp4)"/>
<circle cx="8" cy="30" r="4" fill="none" stroke="#FFAD4B" stroke-width="1" opacity="0.6"/>
<circle cx="8" cy="30" r="2" fill="#FFAD4B"/>
<!-- Vector DB / PostgreSQL pgvector -->
<ellipse cx="47.5" cy="75" rx="28" ry="7" fill="url(#paint4_linear_exp4)"/>
<ellipse cx="47.5" cy="75" rx="28" ry="7" fill="rgba(167, 109, 252, 0.2)"/>
<line x1="19.5" y1="75" x2="19.5" y2="67" stroke="url(#paint5_linear_exp4)" stroke-width="1.8"/>
<line x1="75.5" y1="75" x2="75.5" y2="67" stroke="url(#paint6_linear_exp4)" stroke-width="1.8"/>
<ellipse cx="47.5" cy="67" rx="28" ry="7" fill="none" stroke="url(#paint7_linear_exp4)" stroke-width="1.8"/>
<ellipse cx="47.5" cy="67" rx="28" ry="7" fill="rgba(92, 28, 178, 0.3)"/>
<!-- Vector embeddings representation -->
<circle cx="40" cy="70" r="1.5" fill="#FF00C1" opacity="0.8"/>
<circle cx="47.5" cy="69" r="1.5" fill="#F4AC24" opacity="0.8"/>
<circle cx="55" cy="70" r="1.5" fill="#FF00C1" opacity="0.8"/>
<circle cx="43" cy="73" r="1.5" fill="#FFAD4B" opacity="0.7"/>
<circle cx="52" cy="73" r="1.5" fill="#A76DFC" opacity="0.7"/>
<!-- Arrow showing RAG flow -->
<path d="M47.5 60 L47.5 64" stroke="url(#paint8_linear_exp4)" stroke-width="2" stroke-dasharray="2,2"/>
<path d="M45 62.5 L47.5 65 L50 62.5" stroke="url(#paint9_linear_exp4)" stroke-width="2" stroke-linecap="round"/>
<!-- n8n workflow node -->
<rect x="6" y="48" width="16" height="14" rx="2" fill="url(#paint10_linear_exp4)"/>
<circle cx="10" cy="52" r="1.5" fill="white" opacity="0.9"/>
<circle cx="10" cy="58" r="1.5" fill="white" opacity="0.9"/>
<circle cx="18" cy="55" r="1.5" fill="white" opacity="0.9"/>
<line x1="10" y1="52" x2="18" y2="55" stroke="white" stroke-width="1" opacity="0.7"/>
<line x1="10" y1="58" x2="18" y2="55" stroke="white" stroke-width="1" opacity="0.7"/>
<!-- Alert/notification indicator -->
<rect x="84" y="48" width="8" height="10" rx="1" fill="url(#paint11_linear_exp4)"/>
<circle cx="88" cy="62" r="2" fill="url(#paint12_linear_exp4)"/>
<line x1="86" y1="52" x2="90" y2="52" stroke="white" stroke-width="0.8" opacity="0.8"/>
<line x1="86" y1="54" x2="89" y2="54" stroke="white" stroke-width="0.8" opacity="0.7"/>
<defs>
<linearGradient id="paint0_linear_exp4" x1="15" y1="20" x2="80" y2="45" gradientUnits="userSpaceOnUse">
<stop stop-color="#FF00C1"/>
<stop offset="1" stop-color="#F4AC24"/>
</linearGradient>
<linearGradient id="paint1_linear_exp4" x1="15" y1="20" x2="80" y2="60" gradientUnits="userSpaceOnUse">
<stop stop-color="#A76DFC"/>
<stop offset="1" stop-color="#5C1CB2"/>
</linearGradient>
<linearGradient id="paint2_linear_exp4" x1="15" y1="20" x2="80" y2="42" gradientUnits="userSpaceOnUse">
<stop stop-color="#FFAD4B"/>
<stop offset="1" stop-color="#77007C"/>
</linearGradient>
<linearGradient id="paint3_linear_exp4" x1="2" y1="24" x2="14" y2="36" gradientUnits="userSpaceOnUse">
<stop stop-color="#FFAD4B"/>
<stop offset="1" stop-color="#77007C"/>
</linearGradient>
<linearGradient id="paint4_linear_exp4" x1="19.5" y1="68" x2="75.5" y2="82" gradientUnits="userSpaceOnUse">
<stop stop-color="#461885"/>
<stop offset="1" stop-color="#AA51E0"/>
</linearGradient>
<linearGradient id="paint5_linear_exp4" x1="19.5" y1="67" x2="19.5" y2="75" gradientUnits="userSpaceOnUse">
<stop stop-color="#A76DFC"/>
<stop offset="1" stop-color="#5C1CB2"/>
</linearGradient>
<linearGradient id="paint6_linear_exp4" x1="75.5" y1="67" x2="75.5" y2="75" gradientUnits="userSpaceOnUse">
<stop stop-color="#A76DFC"/>
<stop offset="1" stop-color="#5C1CB2"/>
</linearGradient>
<linearGradient id="paint7_linear_exp4" x1="19.5" y1="60" x2="75.5" y2="74" gradientUnits="userSpaceOnUse">
<stop stop-color="#AA51E0"/>
<stop offset="1" stop-color="#461885"/>
</linearGradient>
<linearGradient id="paint8_linear_exp4" x1="47.5" y1="60" x2="47.5" y2="64" gradientUnits="userSpaceOnUse">
<stop stop-color="#FF00C1"/>
<stop offset="1" stop-color="#F4AC24"/>
</linearGradient>
<linearGradient id="paint9_linear_exp4" x1="45" y1="62.5" x2="50" y2="65" gradientUnits="userSpaceOnUse">
<stop stop-color="#FFAD4B"/>
<stop offset="1" stop-color="#77007C"/>
</linearGradient>
<linearGradient id="paint10_linear_exp4" x1="6" y1="48" x2="22" y2="62" gradientUnits="userSpaceOnUse">
<stop stop-color="#FF6D5A"/>
<stop offset="1" stop-color="#C0392B"/>
</linearGradient>
<linearGradient id="paint11_linear_exp4" x1="84" y1="48" x2="92" y2="58" gradientUnits="userSpaceOnUse">
<stop stop-color="#10B981"/>
<stop offset="1" stop-color="#059669"/>
</linearGradient>
<linearGradient id="paint12_linear_exp4" x1="86" y1="60" x2="90" y2="64" gradientUnits="userSpaceOnUse">
<stop stop-color="#10B981"/>
<stop offset="1" stop-color="#059669"/>
</linearGradient>
</defs>
</svg>